<?xml version="1.0" encoding="UTF-8"?>
<svg version="1.1" xmlns="http://www.w3.org/2000/svg" width="256" height="256">
<path d="M0 0 C11.88 0 23.76 0 36 0 C33.625 13.1875 33.625 13.1875 32.88916016 17.25854492 C31.4731827 25.15587403 30.17936382 33.06389904 29 41 C35.487555 32.79629818 41.90991666 24.54782653 48.23120117 16.21508789 C49.26269401 14.85912482 50.31367488 13.51779472 51.38232422 12.19091797 C53.09355044 9.99130945 53.09355044 9.99130945 54.41845703 7.28173828 C56.35884838 4.00286579 57.83237705 2.15803791 61 0 C67.98127343 -1.66685939 75.39470981 -0.93642936 82.5 -0.625 C84.4868675 -0.57479386 86.47385651 -0.52917442 88.4609375 -0.48828125 C93.31030822 -0.37852842 98.15381386 -0.2062612 103 0 C101.24237075 3.6721459 99.07042424 6.65683161 96.5625 9.875 C95.90205688 10.7249353 95.90205688 10.7249353 95.22827148 11.59204102 C93.82289284 13.39789433 92.41213716 15.19942814 91 17 C90.54882812 17.57637207 90.09765625 18.15274414 89.6328125 18.74658203 C86.89172946 22.24720651 84.14299328 25.74174618 81.39111328 29.23388672 C79.09125768 32.15371042 76.79580371 35.07699007 74.5 38 C71.65775732 41.61837586 68.81460005 45.23602282 65.96875 48.8515625 C65.47181641 49.48320313 64.97488281 50.11484375 64.46289062 50.765625 C63.51403848 51.97164269 62.56484062 53.17738849 61.61523438 54.3828125 C60.4067668 55.91921505 59.2031745 57.45944887 58 59 C57.34 59.60585937 56.68 60.21171875 56 60.8359375 C54.50534307 64.07046852 55.81737018 66.03253109 56.96817017 69.29193115 C58.93911208 74.46472828 61.12881789 79.54038794 63.32421875 84.62109375 C64.09754098 86.42524564 64.87085932 88.22939921 65.64394093 90.03365421 C66.98875999 93.16957485 68.33827402 96.30347351 69.6875 99.4375 C71.31034691 103.20722313 72.93236159 106.97728722 74.54878235 110.74977112 C75.55259369 113.09164949 76.55965847 115.43213644 77.57023621 117.77110291 C78.02103043 118.82302322 78.47182465 119.87494354 78.9362793 120.95874023 C79.53559517 122.35031593 79.53559517 122.35031593 80.14701843 123.77000427 C81 126 81 126 81 128 C68.46 128 55.92 128 43 128 C39.79653268 121.59306537 36.75233837 115.30172349 34.01171875 108.7109375 C33.48962578 107.46698715 33.48962578 107.46698715 32.95698547 106.19790649 C31.86395375 103.5915989 30.77564244 100.9833521 29.6875 98.375 C28.93976692 96.58971229 28.19172261 94.8045549 27.44335938 93.01953125 C25.62531327 88.68118218 23.81149281 84.34108926 22 80 C21.67 80 21.34 80 21 80 C20.83420189 80.85777542 20.83420189 80.85777542 20.66505432 81.73287964 C19.51679941 87.67042604 18.36446004 93.60716916 17.2097168 99.54345703 C16.77897432 101.76070026 16.34928312 103.97814798 15.9206543 106.19580078 C15.30531923 109.37847025 14.68624011 112.56039154 14.06640625 115.7421875 C13.87470352 116.73805878 13.68300079 117.73393005 13.48548889 118.75997925 C13.30537766 119.68078278 13.12526642 120.6015863 12.93969727 121.55029297 C12.78203384 122.3630368 12.62437042 123.17578064 12.46192932 124.01315308 C12 126 12 126 11 128 C-0.55 128 -12.1 128 -24 128 C-24 123.37699672 -23.98371026 120.04169328 -23.13356018 115.69866943 C-22.9414798 114.70051208 -22.74939941 113.70235474 -22.55149841 112.6739502 C-22.33800247 111.60044312 -22.12450653 110.52693604 -21.90454102 109.42089844 C-21.68181519 108.2737738 -21.45908936 107.12664917 -21.22961426 105.94476318 C-20.49405061 102.16503205 -19.74911394 98.38721553 -19.00390625 94.609375 C-18.4901194 91.98107672 -17.97681155 89.35268917 -17.46409607 86.72418213 C-16.38987423 81.22248151 -15.31075506 75.72176045 -14.22827148 70.22167969 C-12.83889809 63.16217591 -11.45748108 56.10113999 -10.07861423 49.03957748 C-9.01950961 43.61582405 -7.95769313 38.19260266 -6.8950634 32.76953888 C-6.38477178 30.16521174 -5.87482874 27.56081627 -5.36523628 24.95635223 C-4.6538959 21.32432211 -3.93982611 17.69284007 -3.22485352 14.06152344 C-3.01338181 12.97991943 -2.8019101 11.89831543 -2.58403015 10.78393555 C-2.38912994 9.7970575 -2.19422974 8.81017944 -1.99342346 7.793396 C-1.82473535 6.93508053 -1.65604723 6.07676506 -1.48224735 5.19244003 C-1 3 -1 3 0 0 Z " fill="#FE7131" transform="translate(142,68)"/>
<path d="M0 0 C0.73511307 0.00359528 1.47022614 0.00719055 2.22761536 0.01089478 C2.99829346 0.01074875 3.76897156 0.01060272 4.56300354 0.01045227 C7.12237823 0.01115157 9.68168104 0.01894471 12.24104309 0.02676392 C14.01081299 0.02862804 15.7805834 0.03005197 17.550354 0.03105164 C22.2176505 0.03487728 26.88491607 0.04470796 31.55220032 0.05575562 C36.31110719 0.06596873 41.07001905 0.07054904 45.82893372 0.07559204 C55.17334837 0.08633019 64.51774004 0.10340717 73.86213684 0.12442017 C73.90007103 4.65668834 73.70815356 8.76162402 72.80354309 13.20645142 C72.58246887 14.30279907 72.36139465 15.39914673 72.13362122 16.52871704 C71.78267395 18.21577759 71.78267395 18.21577759 71.42463684 19.93692017 C71.19453918 21.08096313 70.96444153 22.2250061 70.72737122 23.40371704 C69.00746027 31.83377331 69.00746027 31.83377331 67.86213684 34.12442017 C53.34213684 34.12442017 38.82213684 34.12442017 23.86213684 34.12442017 C22.87213684 39.73442017 21.88213684 45.34442017 20.86213684 51.12442017 C38.18713684 51.61942017 38.18713684 51.61942017 55.86213684 52.12442017 C54.73713684 62.24942017 54.73713684 62.24942017 53.88948059 66.59707642 C53.72955627 67.42731323 53.56963196 68.25755005 53.40486145 69.11294556 C53.10527527 70.63456299 53.10527527 70.63456299 52.79963684 72.18692017 C51.84057434 77.10598267 51.84057434 77.10598267 50.86213684 82.12442017 C38.65213684 82.12442017 26.44213684 82.12442017 13.86213684 82.12442017 C13.53213684 85.42442017 13.20213684 88.72442017 12.86213684 92.12442017 C12.36791516 95.07817712 11.84862623 98.00510968 11.26838684 100.94082642 C11.11680115 101.72336288 10.96521545 102.50589935 10.80903625 103.31214905 C10.49187346 104.94344549 10.17248232 106.57431021 9.85090637 108.20474243 C9.35734278 110.71126641 8.87297889 113.21945292 8.38948059 115.72793579 C8.07882259 117.31983813 7.76764412 118.911639 7.45588684 120.50332642 C7.31106873 121.25425064 7.16625061 122.00517487 7.01704407 122.77885437 C5.97732765 128.00922935 5.97732765 128.00922935 4.86213684 129.12442017 C2.26854362 129.21293546 -0.29826007 129.23967961 -2.89176941 129.22207642 C-3.66721603 129.22066147 -4.44266266 129.21924652 -5.24160767 129.2177887 C-7.7278981 129.21217362 -10.21409976 129.19961863 -12.70036316 129.18692017 C-14.38200249 129.18190711 -16.06364322 129.17734386 -17.74528503 129.17324829 C-21.87617882 129.1621993 -26.00700592 129.14492461 -30.13786316 129.12442017 C-29.61676896 118.51128972 -27.34361999 108.19704439 -25.27848816 97.80410767 C-24.88785636 95.81715056 -24.49770868 93.83009823 -24.10801697 91.84295654 C-23.0824708 86.62052581 -22.05019784 81.39944684 -21.01652527 76.17861938 C-19.98243681 70.94914372 -18.95501361 65.71835941 -17.92692566 60.48770142 C-16.18131033 51.61106571 -14.42798948 42.73598095 -12.66902924 33.86198044 C-11.72784076 29.11185886 -10.79068041 24.36099926 -9.86151505 19.60851097 C-9.28421091 16.65760223 -8.70278269 13.70750536 -8.12223816 10.75723267 C-7.92760986 9.75288177 -7.73298157 8.74853088 -7.53245544 7.71374512 C-7.3580896 6.8323587 -7.18372375 5.95097229 -7.0040741 5.0428772 C-6.85871216 4.29909821 -6.71335022 3.55531921 -6.56358337 2.78900146 C-5.64007368 -0.82195453 -3.2907137 0.00679129 0 0 Z " fill="#FE7131" transform="translate(55.13786315917969,66.87557983398438)"/>
<path d="M0 0 C-0.33 1.32 -0.66 2.64 -1 4 C-0.01 4.33 0.98 4.66 2 5 C1.69750921 8.32739873 1.28765829 10.5627594 -0.5625 13.375 C-3.56899401 15.37932934 -5.53806693 15.56545969 -9.09375 15.40625 C-11.94809908 14.7979461 -13.28977272 13.28030304 -15 11 C-15.33 12.32 -15.66 13.64 -16 15 C-17.32 15 -18.64 15 -20 15 C-21.75 13 -21.75 13 -23 11 C-23.33 12.32 -23.66 13.64 -24 15 C-28.29 15 -32.58 15 -37 15 C-36.34 11.37 -35.68 7.74 -35 4 C-35.99 4 -36.98 4 -38 4 C-38.66 7.63 -39.32 11.26 -40 15 C-41.98 15 -43.96 15 -46 15 C-45.34 11.37 -44.68 7.74 -44 4 C-45.65 4.33 -47.3 4.66 -49 5 C-48.34 5.99 -47.68 6.98 -47 8 C-47.1875 10.5625 -47.1875 10.5625 -48 13 C-51.48804095 15.32536063 -52.90140754 15.33457898 -57 15 C-59.375 14 -59.375 14 -61 13 C-61.99 13.66 -62.98 14.32 -64 15 C-67.4375 15.375 -67.4375 15.375 -71 15 C-73.4375 13 -73.4375 13 -75 11 C-75.33 12.32 -75.66 13.64 -76 15 C-77.98 15 -79.96 15 -82 15 C-82.33 13.68 -82.66 12.36 -83 11 C-83.33 12.32 -83.66 13.64 -84 15 C-85.98 15 -87.96 15 -90 15 C-89.69075786 12.89535207 -89.3774944 10.7912947 -89.0625 8.6875 C-88.88847656 7.51574219 -88.71445313 6.34398437 -88.53515625 5.13671875 C-88 2 -88 2 -87 -1 C-85.02 -1 -83.04 -1 -81 -1 C-81.33 0.65 -81.66 2.3 -82 4 C-81.34 4 -80.68 4 -80 4 C-79.67 2.35 -79.34 0.7 -79 -1 C-77.35 -1 -75.7 -1 -74 -1 C-73.67 -0.01 -73.34 0.98 -73 2 C-72.67 1.505 -72.34 1.01 -72 0.5 C-69.39052814 -1.4571039 -67.14436433 -1.47137052 -63.94140625 -1.37109375 C-61.04635934 -0.81771456 -59.72497364 0.70003515 -58 3 C-57.4740625 2.01 -57.4740625 2.01 -56.9375 1 C-55 -1 -55 -1 -51.4375 -1.25 C-50.303125 -1.1675 -49.16875 -1.085 -48 -1 C-46.60018188 -1 -45.20026067 -1.02308563 -43.80102539 -1.06347656 C-40.88834926 -1.14659818 -37.97589664 -1.19840284 -35.0625 -1.25 C-34.04736328 -1.28351563 -33.03222656 -1.31703125 -31.98632812 -1.3515625 C-30.52549805 -1.37089844 -30.52549805 -1.37089844 -29.03515625 -1.390625 C-28.1419165 -1.41157227 -27.24867676 -1.43251953 -26.32836914 -1.45410156 C-24 -1 -24 -1 -22.18530273 1.02441406 C-21.79415283 1.67635742 -21.40300293 2.32830078 -21 3 C-20.34 1.68 -19.68 0.36 -19 -1 C-17.35 -1 -15.7 -1 -14 -1 C-13.505 0.485 -13.505 0.485 -13 2 C-12.5875 1.525625 -12.175 1.05125 -11.75 0.5625 C-7.74121036 -3.01677647 -4.74780768 -1.83438024 0 0 Z M-29 1 C-29 2.65 -29 4.3 -29 6 C-28.67 6 -28.34 6 -28 6 C-28 4.35 -28 2.7 -28 1 C-28.33 1 -28.66 1 -29 1 Z M-75 4 C-74 6 -74 6 -74 6 Z M-68 4 C-68.33 5.65 -68.66 7.3 -69 9 C-67.68 9 -66.36 9 -65 9 C-64.67 7.35 -64.34 5.7 -64 4 C-65.32 4 -66.64 4 -68 4 Z M-8 4 C-8.33 5.65 -8.66 7.3 -9 9 C-8.34 8.67 -7.68 8.34 -7 8 C-7 7.01 -7 6.02 -7 5 C-6.01 4.67 -5.02 4.34 -4 4 C-5.32 4 -6.64 4 -8 4 Z M-58 5 C-58.33 6.65 -58.66 8.3 -59 10 C-58.01 9.01 -57.02 8.02 -56 7 C-56.66 6.34 -57.32 5.68 -58 5 Z M-30 6 C-30 7.65 -30 9.3 -30 11 C-29.67 11 -29.34 11 -29 11 C-29 9.35 -29 7.7 -29 6 C-29.33 6 -29.66 6 -30 6 Z " fill="#000000" transform="translate(231,206)"/>
<path d="M0 0 C7.59 0 15.18 0 23 0 C22 9 22 9 21 11 C22.65 11 24.3 11 26 11 C26.66 7.37 27.32 3.74 28 0 C31.63 0 35.26 0 39 0 C38 5 38 5 36.875 7.625 C35.68439886 10.09435498 35.68439886 10.09435498 37 13 C36.67 13.99 36.34 14.98 36 16 C26.76 16 17.52 16 8 16 C8 14.35 8 12.7 8 11 C6.68 11 5.36 11 4 11 C3.67 12.65 3.34 14.3 3 16 C1.02 16 -0.96 16 -3 16 C-2.01 10.72 -1.02 5.44 0 0 Z M5 5 C6.98 5.99 6.98 5.99 9 7 C9.33 6.34 9.66 5.68 10 5 C8.35 5 6.7 5 5 5 Z M15 6 C16 10 16 10 16 10 Z M14 11 C15 15 15 15 15 15 Z " fill="#000000" transform="translate(99,205)"/>
</svg>
